REM MD5 61bdac251b3064109ba5bfa4bef56345
FILE "Independence Day (USA).bin" BINARY
  TRACK 01 MODE2/2352
    INDEX 01 00:00:00
  TRACK 02 AUDIO
    INDEX 00 22:11:15
    INDEX 01 22:13:15
  TRACK 03 AUDIO
    INDEX 00 33:07:37
    INDEX 01 33:09:37
REM LEADOUT 45:23:37
